Coordinates
version=1
nRows=29
nColumns=22
inDegrees=yes

Units are S.I. units (second, meters, Newtons, ...)
If the header above contains a line with 'inDegrees', this indicates whether rotational values are in degrees (yes) or radians (no).

endheader
time	pelvis_tilt	pelvis_list	pelvis_rotation	pelvis_tx	pelvis_ty	pelvis_tz	hip_flexion_r	hip_adduction_r	hip_rotation_r	knee_angle_r	ankle_angle_r	subtalar_angle_r	hip_flexion_l	hip_adduction_l	hip_rotation_l	knee_angle_l	ankle_angle_l	subtalar_angle_l	lumbar_extension	lumbar_bending	lumbar_rotation
      0.01000000	    -14.28554966	     -1.37791225	     -6.25071523	     -0.57485416	      0.97862155	      0.35796610	     20.77958491	      4.53135863	     -1.88373880	    -16.60132486	     15.06990388	     -7.32130293	     21.32170275	     -1.99508392	     -4.51575080	    -17.90578513	     17.82372650	     -2.48206936	      7.84793978	      3.96594681	      3.90911178
      0.02000000	    -14.28961609	     -1.38312149	     -6.24481284	     -0.57483663	      0.97861243	      0.35795520	     20.77203700	      4.53808826	     -1.86188302	    -16.58291415	     15.07093098	     -7.31760815	     21.32500706	     -1.99740603	     -4.49750005	    -17.90466987	     17.84801434	     -2.47817133	      7.85309277	      3.97013574	      3.89798588
      0.03000000	    -14.29026217	     -1.38357810	     -6.24449699	     -0.57481953	      0.97860777	      0.35794524	     20.77196511	      4.53805695	     -1.86180211	    -16.58297855	     15.07088244	     -7.31758885	     21.32489364	     -1.99731439	     -4.49757302	    -17.90473419	     17.84805237	     -2.47812942	      7.85270713	      3.97011921	      3.89793527
      0.04000000	    -14.29080597	     -1.38565614	     -6.23813654	     -0.57480618	      0.97860232	      0.35792420	     20.77149058	      4.53793765	     -1.85988247	    -16.58353243	     15.07070007	     -7.31756900	     21.32587175	     -1.99715000	     -4.49829554	    -17.90403492	     17.84891670	     -2.47776635	      7.85062566	      3.97101610	      3.89639858
      0.05000000	    -14.29181241	     -1.38625052	     -6.23788397	     -0.57478551	      0.97859416	      0.35791326	     20.77111539	      4.53780020	     -1.85967521	    -16.58371880	     15.07071199	     -7.31758602	     21.32568979	     -1.99706174	     -4.49825704	    -17.90421354	     17.84901033	     -2.47773149	      7.85013941	      3.97076420	      3.89602572
      0.06000000	    -14.29216689	     -1.38886589	     -6.22860411	     -0.57477309	      0.97858684	      0.35789334	     20.76985021	      4.53775218	     -1.85579429	    -16.58435428	     15.07127183	     -7.31798477	     21.32667085	     -1.99696389	     -4.49799875	    -17.90363068	     17.85078680	     -2.47739536	      7.84688722	      3.96973608	      3.89070870
      0.07000000	    -14.29337488	     -1.38954049	     -6.22862674	     -0.57475249	      0.97857913	      0.35788347	     20.76947398	      4.53762875	     -1.85566788	    -16.58443869	     15.07131708	     -7.31802444	     21.32637353	     -1.99667331	     -4.49787820	    -17.90386091	     17.85088289	     -2.47737099	      7.84632293	      3.96940901	      3.89024910
      0.08000000	    -14.29458201	     -1.39149589	     -6.22142269	     -0.57475527	      0.97857203	      0.35787290	     20.76891280	      4.53804010	     -1.85343824	    -16.58185068	     15.07234747	     -7.31888446	     21.32808894	     -1.99647888	     -4.49565001	    -17.90151986	     17.85333569	     -2.47703097	      7.84024348	      3.96624504	      3.88261062
      0.09000000	    -14.29567492	     -1.39224790	     -6.22151178	     -0.57473893	      0.97856542	      0.35786384	     20.76847947	      4.53783858	     -1.85343195	    -16.58194765	     15.07236569	     -7.31892364	     21.32781630	     -1.99616781	     -4.49554261	    -17.90164859	     17.85339607	     -2.47701607	      7.83991474	      3.96594559	      3.88237604
      0.10000000	    -14.29669387	     -1.39295277	     -6.22148266	     -0.57472790	      0.97855842	      0.35785590	     20.76819281	      4.53774631	     -1.85347262	    -16.58192866	     15.07238632	     -7.31895386	     21.32767015	     -1.99592521	     -4.49549487	    -17.90158988	     17.85345732	     -2.47700636	      7.83948066	      3.96556286	      3.88225402
      0.11000000	    -14.30005844	     -1.39501437	     -6.21628360	     -0.57474527	      0.97855249	      0.35785687	     20.76946266	      4.53949199	     -1.85569768	    -16.57633828	     15.07307473	     -7.31948986	     21.33017260	     -1.99720028	     -4.49428408	    -17.89552342	     17.85499509	     -2.47687257	      7.83419091	      3.96062372	      3.88158840
      0.12000000	    -14.30621311	     -1.39780079	     -6.20625136	     -0.57471484	      0.97854666	      0.35784381	     20.76140724	      4.53891163	     -1.87263301	    -16.55258977	     15.07398444	     -7.32330538	     21.32813949	     -1.99560585	     -4.47943141	    -17.88096051	     17.86040552	     -2.47579628	      7.84560782	      3.95910183	      3.88012420
      0.13000000	    -14.30859781	     -1.39890309	     -6.20512344	     -0.57473504	      0.97854253	      0.35784561	     20.76349788	      4.54019374	     -1.87395089	    -16.54977869	     15.07375783	     -7.32364257	     21.33008883	     -1.99691323	     -4.47871845	    -17.87816299	     17.86037686	     -2.47574645	      7.84118183	      3.95692177	      3.87994464
      0.14000000	    -14.31198705	     -1.40042640	     -6.20320271	     -0.57475773	      0.97853684	      0.35785250	     20.76528590	      4.54223126	     -1.87662878	    -16.54461264	     15.07351637	     -7.32400350	     21.33282945	     -1.99904346	     -4.47842024	    -17.87393460	     17.86025818	     -2.47568570	      7.83787466	      3.95382618	      3.88120140
      0.15000000	    -14.32310676	     -1.40477991	     -6.19923967	     -0.57475010	      0.97852633	      0.35785601	     20.76352650	      4.54619149	     -1.89076383	    -16.52033174	     15.06996871	     -7.32588791	     21.33888936	     -2.00396429	     -4.47630434	    -17.86387721	     17.85763983	     -2.47507538	      7.85197244	      3.95568788	      3.88844021
      0.16000000	    -14.32604976	     -1.40559244	     -6.19834864	     -0.57478065	      0.97852247	      0.35786655	     20.76583948	      4.54759821	     -1.89201379	    -16.51632159	     15.06972205	     -7.32599248	     21.34214532	     -2.00625800	     -4.47668147	    -17.86061881	     17.85755749	     -2.47502144	      7.84809045	      3.95295471	      3.88819885
      0.17000000	    -14.33769107	     -1.40831156	     -6.19306930	     -0.57477777	      0.97850926	      0.35787699	     20.76523629	      4.55056778	     -1.90191025	    -16.49355964	     15.06758733	     -7.32622605	     21.35093589	     -2.01052330	     -4.48127315	    -17.85335380	     17.85495087	     -2.47433654	      7.86214506	      3.95116525	      3.88901344
      0.18000000	    -14.34078568	     -1.40845417	     -6.19310271	     -0.57480530	      0.97850437	      0.35788369	     20.76757407	      4.55095283	     -1.90327319	    -16.48944195	     15.06746649	     -7.32619860	     21.35428258	     -2.01200388	     -4.48182375	    -17.85066808	     17.85478693	     -2.47419099	      7.85900896	      3.94938215	      3.88816088
      0.19000000	    -14.35387460	     -1.40747158	     -6.18706956	     -0.57479148	      0.97848819	      0.35788485	     20.76913595	      4.54901195	     -1.91396536	    -16.46804315	     15.06602898	     -7.32574537	     21.36456728	     -2.01185719	     -4.48906810	    -17.84391086	     17.85174567	     -2.47286916	      7.87810788	      3.94531507	      3.88347171
      0.20000000	    -14.35699165	     -1.40739816	     -6.18621667	     -0.57480958	      0.97848395	      0.35788742	     20.77183416	      4.54880408	     -1.91522384	    -16.46539271	     15.06583158	     -7.32571041	     21.36764741	     -2.01255396	     -4.48964825	    -17.84151560	     17.85133171	     -2.47258960	      7.87689911	      3.94307062	      3.88232900
      0.21000000	    -14.36687089	     -1.40511589	     -6.17890228	     -0.57479511	      0.97847024	      0.35788432	     20.77593801	      4.54520166	     -1.92290720	    -16.45529325	     15.06490671	     -7.32563173	     21.37432907	     -2.01029041	     -4.49635247	    -17.83330425	     17.84912009	     -2.47147896	      7.89266520	      3.93539420	      3.87807997
      0.22000000	    -14.36737707	     -1.40535298	     -6.17923130	     -0.57479355	      0.97846974	      0.35787574	     20.77633411	      4.54482376	     -1.92301864	    -16.45503338	     15.06488891	     -7.32564221	     21.37405172	     -2.01002456	     -4.49636186	    -17.83348829	     17.84903775	     -2.47144345	      7.89290000	      3.93537708	      3.87791135
      0.23000000	    -14.39187699	     -1.39380470	     -6.17446663	     -0.57476667	      0.97843668	      0.35786020	     20.79620595	      4.53225743	     -1.93298749	    -16.44243260	     15.06179536	     -7.32629403	     21.39181638	     -1.99859491	     -4.50363380	    -17.81663729	     17.84069174	     -2.46776483	      7.93178326	      3.92351196	      3.86804219
      0.24000000	    -14.39204617	     -1.39417600	     -6.17492636	     -0.57476430	      0.97843414	      0.35785079	     20.79675638	      4.53261657	     -1.93290275	    -16.44263589	     15.06179141	     -7.32631033	     21.39183111	     -1.99802439	     -4.50337714	    -17.81706229	     17.84054318	     -2.46770902	      7.93211186	      3.92321781	      3.86800712
      0.25000000	    -14.39402179	     -1.39395545	     -6.17777332	     -0.57475341	      0.97842839	      0.35786106	     20.79960105	      4.53424753	     -1.93184443	    -16.44497818	     15.06179374	     -7.32640808	     21.39337892	     -1.99910663	     -4.50074271	    -17.81882998	     17.83936658	     -2.46720418	      7.93829003	      3.91958005	      3.86808829
      0.26000000	    -14.39411374	     -1.39456490	     -6.17793363	     -0.57475129	      0.97842493	      0.35785122	     20.79996987	      4.53426157	     -1.93177209	    -16.44488705	     15.06181230	     -7.32641330	     21.39342609	     -1.99883504	     -4.50074412	    -17.81882136	     17.83934385	     -2.46718590	      7.93846866	      3.91936236	      3.86814526
      0.27000000	    -14.45637430	     -1.38990414	     -6.19037609	     -0.57479570	      0.97831364	      0.35787552	     20.87656360	      4.54257468	     -1.90481624	    -16.46009688	     15.05766850	     -7.32693346	     21.46757841	     -2.00466507	     -4.49881654	    -17.83237026	     17.83875944	     -2.46463900	      8.01471772	      3.91985149	      3.88019936
      0.28000000	    -14.45598112	     -1.39084274	     -6.19303257	     -0.57478214	      0.97830643	      0.35788160	     20.87534993	      4.54362056	     -1.90775366	    -16.46059296	     15.05838131	     -7.32701241	     21.46636240	     -2.00609359	     -4.49842581	    -17.83375998	     17.83895703	     -2.46471821	      8.01836315	      3.91798922	      3.88057797
      0.29000000	    -14.45573200	     -1.39200272	     -6.19714954	     -0.57476946	      0.97829771	      0.35788901	     20.87433919	      4.54519678	     -1.91087712	    -16.46124268	     15.05936692	     -7.32720637	     21.46508478	     -2.00804558	     -4.49768482	    -17.83505536	     17.83964437	     -2.46492918	      8.02184235	      3.91685653	      3.88136922
